<svg width="154" height="102" viewBox="0 0 154 102" fill="none" xmlns="http://www.w3.org/2000/svg">
<g clip-path="url(#clip0_722_3069)">
<path d="M51.57 5.30995L53.56 5.18995L53.45 3.40995L51.67 3.31995L51.57 5.30995Z" fill="#00B2A9"/>
<path d="M61.2 6.85996L61.72 4.92996L60 4.45996L59.34 6.10996L61.2 6.85996Z" fill="#00B2A9"/>
<path d="M61.56 4.88L59.56 4.93L59.59 6.43L61.04 6.82L61.56 4.88Z" fill="#00B2A9"/>
<path d="M51.85 3.32996L51.73 5.31996L53.23 5.40996L53.73 3.99996L51.85 3.32996Z" fill="#00B2A9"/>
<path d="M56.56 7C57.6646 7 58.56 6.10457 58.56 5C58.56 3.89543 57.6646 3 56.56 3C55.4554 3 54.56 3.89543 54.56 5C54.56 6.10457 55.4554 7 56.56 7Z" fill="#FF6A13"/>
<path d="M56.56 2C57.87 2 59.05 2.87 59.43 4.13C59.51 4.39 59.55 4.66 59.56 4.94V5.55L59.35 6.12C59.01 6.97 58.31 7.61 57.44 7.88C57.15 7.97 56.86 8.01 56.56 8.01C55.25 8.01 54.07 7.14 53.69 5.88C53.62 5.65 53.58 5.42 53.56 5.19L53.52 4.58L53.73 4C54.05 3.09 54.76 2.41 55.68 2.13C55.97 2.04 56.26 2 56.56 2ZM56.56 0C56.08 0 55.59 0.07 55.1 0.22C53.53 0.7 52.36 1.89 51.85 3.33C50.92 3.28 49.98 3.25 49.03 3.25C44.3 3.25 39.48 3.94 34.72 5.39C8.83997 13.28 -5.75003 40.66 2.13997 66.55C8.57997 87.67 28 101.27 48.99 101.27C53.72 101.27 58.54 100.58 63.3 99.13C78.52 94.49 89.82 83.11 94.96 69.26H92.82C87.78 82.23 77.06 92.84 62.72 97.22C58.15 98.61 53.53 99.28 48.99 99.28C28.85 99.28 10.23 86.24 4.04997 65.98C-3.51003 41.14 10.48 14.87 35.3 7.3C39.87 5.91 44.49 5.24 49.03 5.24C49.88 5.24 50.72 5.26 51.57 5.31C51.59 5.69 51.66 6.08 51.78 6.46C52.44 8.62 54.42 10 56.56 10C57.04 10 57.53 9.93 58.02 9.78C59.53 9.32 60.66 8.21 61.2 6.85C75.26 10.64 87.27 20.89 92.82 35.25H94.96C89.28 19.85 76.53 8.85 61.56 4.88C61.55 4.44 61.48 3.99 61.34 3.54C60.68 1.39 58.7 0 56.56 0Z" fill="#00B2A9"/>
<path d="M29.03 60.8H18.74L17.25 65.33H11.17L20.42 39.04H27.68L36.89 65.33H30.5L29.01 60.8H29.03ZM23.87 45.26L20.47 55.55H27.28L23.88 45.26H23.87Z" fill="white"/>
<path d="M54.01 39.04H60.93L50.53 52.16L61.23 65.32H53.55L44.68 54.11V65.32H38.75V39.03H44.68V51.27L54.01 39.03V39.04Z" fill="white"/>
<path d="M70.99 65.32V55.49L61.47 39.03H68L74.04 50.08L80.12 39.03H86.47L76.95 55.53V65.32H70.98H70.99Z" fill="white"/>
<path d="M109.66 45.75C106.84 45.75 105.33 47.24 104.59 48.39C103.65 46.71 101.93 45.75 99.8 45.75C97.55 45.75 96.23 46.72 95.52 47.53V45.99H93.53V61.16H95.52V52.2C95.52 49.38 97.07 47.69 99.66 47.69C102.03 47.69 103.39 49.2 103.39 51.82V61.15H105.38V51.99C105.38 49.3 106.93 47.69 109.52 47.69C111.89 47.69 113.25 49.2 113.25 51.82V61.15H115.24V51.7C115.24 48.08 113.05 45.75 109.66 45.75Z" fill="#00B2A9"/>
<path d="M126.45 45.75C122.12 45.75 118.72 49.17 118.72 53.54C118.72 57.91 122.09 61.36 126.57 61.36C129.69 61.36 131.96 60.12 133.53 57.58L133.67 57.35L132.09 56.27L131.93 56.53C130.73 58.52 129.07 59.4 126.56 59.4C123.42 59.4 121.15 57.39 120.82 54.36H134.03V54.07C134.03 54.02 134.03 53.91 134.04 53.88L134.06 53.79C134.06 53.7 134.06 53.6 134.07 53.49C134.07 53.37 134.09 53.24 134.09 53.12C134.09 48.99 130.73 45.77 126.45 45.77V45.75ZM132 52.46H120.83C121.3 49.33 123.97 47.69 126.45 47.69C129.35 47.69 131.59 49.64 132 52.46Z" fill="#00B2A9"/>
<path d="M151.06 40.58V48.27C149.69 46.64 147.67 45.75 145.27 45.75C140.95 45.75 137.57 49.18 137.57 53.57C137.57 57.96 140.95 61.36 145.27 61.36C148.21 61.36 150.01 60.11 151.06 58.84V61.12H153.06V40.58H151.06ZM151.15 53.53C151.15 56.88 148.66 59.41 145.35 59.41C142.04 59.41 139.56 56.88 139.56 53.53C139.56 50.18 142.05 47.68 145.35 47.68C148.65 47.68 151.15 50.19 151.15 53.53Z" fill="#00B2A9"/>
<path d="M56.57 2.01001C58.22 2.01001 59.56 3.35001 59.56 5.00001C59.56 6.65001 58.22 7.99001 56.57 7.99001C54.92 7.99001 53.58 6.65001 53.58 5.00001C53.58 3.35001 54.92 2.01001 56.57 2.01001ZM56.57 0.0100098C53.82 0.0100098 51.58 2.24001 51.58 5.00001C51.58 7.76001 53.81 9.99001 56.57 9.99001C59.33 9.99001 61.56 7.76001 61.56 5.00001C61.56 2.24001 59.32 0.0100098 56.57 0.0100098Z" fill="#00B2A9"/>
</g>
<defs>
<clipPath id="clip0_722_3069">
<rect width="153.06" height="101.27" fill="white"/>
</clipPath>
</defs>
</svg>
