<svg width="154" height="99" viewBox="0 0 154 99" fill="none" xmlns="http://www.w3.org/2000/svg">
<path d="M29.8254 58.1489H19.54L18.0485 62.6795H11.9659L21.218 36.3926H28.4815L37.6948 62.6795H31.3092L29.8176 58.1489H29.8254ZM24.6672 42.6076L21.2646 52.8931H28.0697L24.6672 42.6076Z" fill="white"/>
<path d="M54.8086 36.3926H61.7302L51.3283 49.5166L62.0332 62.6795H54.3502L45.4787 51.4739V62.6795H39.5514V36.3926H45.4787V48.6354L54.8086 36.3926Z" fill="white"/>
<path d="M71.7903 62.6717V52.8463L62.274 36.3849H68.8072L74.851 47.4346L80.9337 36.3849H87.2805L77.7642 52.8853V62.6717H71.7903Z" fill="white"/>
<path d="M110.461 43.0989C107.641 43.0989 106.134 44.5883 105.389 45.7346C104.449 44.0502 102.732 43.0989 100.595 43.0989C98.3427 43.0989 97.022 44.0658 96.3151 44.8768V43.3328H94.3264V58.4998H96.3151V49.54C96.3151 46.7171 97.861 45.0328 100.456 45.0328C102.825 45.0328 104.184 46.5378 104.184 49.1579V58.492H106.173V49.3294C106.173 46.6391 107.719 45.0328 110.314 45.0328C112.683 45.0328 114.043 46.5378 114.043 49.1579V58.492H116.031V49.0409C116.031 45.4226 113.841 43.0911 110.454 43.0911L110.461 43.0989Z" fill="#00B2A9"/>
<path d="M127.249 43.0989C122.914 43.0989 119.519 46.5222 119.519 50.889C119.519 55.2559 122.891 58.7104 127.365 58.7104C130.481 58.7104 132.757 57.4705 134.326 54.9284L134.466 54.6944L132.889 53.6105L132.733 53.8678C131.529 55.8563 129.875 56.7375 127.365 56.7375C124.227 56.7375 121.959 54.7256 121.625 51.7H134.831V51.4115C134.831 51.3569 134.831 51.2555 134.846 51.2165L134.862 51.123C134.862 51.0294 134.862 50.928 134.877 50.8266C134.877 50.7019 134.893 50.5771 134.893 50.4523C134.893 46.3272 131.537 43.0989 127.249 43.0989ZM132.803 49.8129H121.632C122.098 46.6781 124.771 45.0406 127.249 45.0406C130.146 45.0406 132.392 46.99 132.803 49.8129Z" fill="#00B2A9"/>
<path d="M151.859 37.9288V45.6176C150.492 43.9878 148.464 43.0989 146.064 43.0989C141.745 43.0989 138.365 46.53 138.365 50.9202C138.365 55.3104 141.745 58.7103 146.064 58.7103C149.008 58.7103 150.803 57.4627 151.859 56.1916V58.4764H153.856V37.9366H151.859V37.9288ZM151.945 50.889C151.945 54.2421 149.451 56.7687 146.149 56.7687C142.848 56.7687 140.354 54.2421 140.354 50.889C140.354 47.5359 142.848 45.0406 146.149 45.0406C149.451 45.0406 151.945 47.5515 151.945 50.889Z" fill="#00B2A9"/>
<path d="M95.7574 66.6282C90.6192 80.469 79.3098 91.8385 64.0979 96.4772C38.2127 104.371 10.8297 89.7855 2.93631 63.9003C-4.95713 38.0151 9.62806 10.6321 35.5132 2.73868C60.4745 -4.87303 86.8286 8.41792 95.7561 32.5876H93.6178C84.8103 9.84533 59.7988 -2.57606 36.0966 4.65171C11.268 12.223 -2.72192 38.4883 4.84934 63.3169C12.4206 88.1456 38.6859 102.135 63.5146 94.5642C77.8502 90.1927 88.5726 79.589 93.6177 66.6282H95.7574Z" fill="#00B2A9"/>
</svg>
