<svg width="106" height="107" viewBox="0 0 106 107" fill="none" xmlns="http://www.w3.org/2000/svg">
<path d="M53.0475 7.53278C54.1521 7.53278 55.0475 6.63735 55.0475 5.53278C55.0475 4.42821 54.1521 3.53278 53.0475 3.53278C51.9429 3.53278 51.0475 4.42821 51.0475 5.53278C51.0475 6.63735 51.9429 7.53278 53.0475 7.53278Z" fill="#FF6A13"/>
<path d="M53.0575 2.54279C54.7075 2.54279 56.0475 3.88279 56.0475 5.53279C56.0475 7.18279 54.7075 8.52279 53.0575 8.52279C51.4075 8.52279 50.0675 7.18279 50.0675 5.53279C50.0675 3.88279 51.4075 2.54279 53.0575 2.54279ZM53.0575 0.542786C50.3075 0.542786 48.0675 2.77279 48.0675 5.53279C48.0675 8.29279 50.2975 10.5228 53.0575 10.5228C55.8175 10.5228 58.0475 8.29279 58.0475 5.53279C58.0475 2.77279 55.8075 0.542786 53.0575 0.542786Z" fill="#00B2A9"/>
</svg>
