<svg width="187" height="68" viewBox="0 0 187 68" fill="none" xmlns="http://www.w3.org/2000/svg">
<path d="M33.9249 1.36297H25.495V25.9243L9.86885 1.36297H0.308105V40.0455H8.73801V15.5398L24.3642 40.0455H33.9249V1.36297Z" fill="white"/>
<path d="M177.514 1.36297V16.8842H161.102V1.36297H152.327V40.0455H161.102V24.9137H177.514V40.0455H186.289V1.36297H177.514Z" fill="white"/>
<path d="M9.62584 61.6862H13.738C13.1305 63.3366 11.7941 64.3751 9.70995 64.3751C7.00901 64.3751 5.02771 62.3631 5.02771 59.6556C5.02771 56.7721 7.08378 54.7971 9.8034 54.7971C11.4389 54.7971 12.7006 55.5667 13.766 56.9019L16.3455 54.7137C14.9249 52.7017 12.738 51.5334 9.81275 51.5334C4.8221 51.5334 1.46696 55.1402 1.46696 59.5722C1.46696 64.0042 4.90621 67.6295 9.81275 67.6295C14.4483 67.6295 17.6632 64.1711 17.6632 59.5444V58.6357H9.62584V61.6862Z" fill="white"/>
<path d="M33.9809 60.9908H41.2146V57.9218H33.9809V55.0104H41.8127V51.8487H30.4763L30.4669 51.8394V67.305H41.822V64.1433H33.9809V60.9908Z" fill="white"/>
<path d="M64.794 61.6677L58.551 51.8394H54.7192V67.305H58.0837V57.5046L64.336 67.305H68.1678V51.8394H64.794V61.6677Z" fill="white"/>
<path d="M84.8687 60.9908H92.1117V57.9218H84.8687V55.0104H92.7005V51.8487H81.3641L81.3547 51.8394V67.305H92.7192V64.1433H84.8687V60.9908Z" fill="white"/>
<path d="M104.981 55.0475H109.598V67.305H113.112V55.0475H117.729V51.8394H104.981V55.0475Z" fill="white"/>
<path d="M133.831 51.8394H130.327V67.305H133.831V51.8394Z" fill="white"/>
<path d="M154.972 64.3473C152.224 64.3473 150.233 62.2518 150.233 59.5444H150.243C150.243 56.9019 152.233 54.7786 154.859 54.7786C156.85 54.7786 158.186 55.7893 159.093 57.3006L161.878 55.3813C160.401 52.7666 158 51.5242 154.925 51.5242C150.215 51.5242 146.663 55.0104 146.663 59.5444C146.663 64.0784 150.233 67.6295 155.009 67.6295C158.177 67.6295 160.42 66.1831 161.934 63.7446L159.205 61.8438C158.327 63.383 156.878 64.3565 154.972 64.3565V64.3473Z" fill="white"/>
<path d="M173.747 62.4833C173.747 62.4833 173.747 62.4557 173.747 62.4465V62.4833Z" fill="white"/>
<path d="M180.7 58.033C178.953 57.5973 177.401 57.2913 177.401 55.9561C177.401 54.9455 178.308 54.3799 179.729 54.3799C181.635 54.3799 182.317 55.3813 182.383 56.6237H185.915C185.672 53.6289 183.532 51.552 179.831 51.552C176.13 51.552 174.018 53.564 174.018 56.2714C174.018 59.9523 177.037 60.657 179.495 61.269C181.271 61.6306 182.785 62.0014 182.785 63.1697C182.785 64.1433 181.906 64.8387 180.121 64.8387C178.037 64.8387 177.336 63.6611 177.271 62.4929H173.775C173.99 65.6546 176.009 67.5831 180.037 67.5831C184.065 67.5831 186.299 65.534 186.299 62.7154C186.299 59.2477 183.252 58.5894 180.729 58.0423L180.7 58.033Z" fill="white"/>
<path d="M113.906 1.36297L100.215 40.0362H109.215L119.009 10.5051L124.046 25.6369H121.392C119.093 25.6369 117.046 27.1204 116.355 29.3179L115.065 33.3697H126.635L128.841 40.0362H138.299L124.654 1.36297H113.897H113.906Z" fill="white"/>
<path d="M65.6071 13.741C64.9529 14.7887 63.6445 17.422 65.6445 19.5452C65.766 19.6751 65.8781 19.7956 65.9996 19.9161H70.7379C70.6164 19.7492 70.4856 19.5731 70.3267 19.4062C68.4295 17.422 66.3174 15.5212 65.6071 13.7503V13.741Z" fill="white"/>
<path d="M79.8314 19.9069V8.11295L68.1865 0L56.5323 8.10367V19.9069H47.5977V19.9347C47.5977 22.7997 48.1398 25.4515 49.2052 27.8993C50.2706 30.3378 51.7473 32.4703 53.6164 34.2784C55.4856 36.0864 57.6632 37.4865 60.1491 38.5156C62.6351 39.5448 65.2987 40.0362 68.1304 40.0362C70.9622 40.0362 73.7473 39.5263 76.2426 38.5156C78.7473 37.505 80.9248 36.0864 82.7473 34.2784C84.5697 32.4703 86.0183 30.3471 87.0744 27.8993C88.1304 25.4607 88.6538 22.7997 88.6538 19.9069H79.8127H79.8314ZM76.4202 28.4185C75.3641 29.4848 74.1304 30.3378 72.7099 30.959C71.2893 31.5802 69.7753 31.8862 68.1491 31.8862C66.523 31.8862 64.9529 31.5895 63.5604 30.9775C62.1678 30.3656 60.9342 29.5311 59.8781 28.4649C58.822 27.3986 57.9996 26.1191 57.4202 24.6634C56.8407 23.1984 56.5417 21.6222 56.5417 19.9347H63.1398C62.9342 19.5452 62.7753 19.1558 62.7192 18.7757C62.4015 16.8657 62.8501 15.1782 65.5043 13.4629C65.4482 13.296 65.3828 13.1198 65.3548 12.9529C65.0276 10.9502 65.523 9.19776 68.523 7.39901C68.523 7.39901 65.6538 11.0058 68.2426 13.741C71.2613 16.9398 72.8407 18.4604 73.0931 19.9347H79.7566C79.7566 21.6036 79.4575 23.152 78.8781 24.5985C78.2987 26.0727 77.4669 27.3337 76.4202 28.4V28.4185Z" fill="white"/>
<path d="M70.4949 24.3203C71.3547 23.5878 72.7566 22.6885 73.0837 20.8526C73.1398 20.5466 73.1398 20.2592 73.0837 19.9625H70.7473C72.1772 22.0765 70.4856 24.3296 70.4856 24.3296L70.4949 24.3203Z" fill="white"/>
<path d="M67.8594 30.1338C68.7192 29.4013 70.1211 28.502 70.4482 26.6661C70.766 24.8952 69.3174 23.5044 65.9529 19.9532H63.1305C63.9903 21.6222 65.9249 23.4024 67.6912 25.2475C69.8407 27.5006 67.8501 30.1338 67.8501 30.1338H67.8594Z" fill="white"/>
</svg>
