<svg width="309" height="67" viewBox="0 0 309 67" fill="none" xmlns="http://www.w3.org/2000/svg">
<path d="M114.246 37.6331H118.995L121.383 40.7049L123.732 43.4411L128.159 48.9909H122.945L119.899 45.248L118.337 43.0281L114.246 37.6331ZM128.559 33.6063C128.559 36.4888 128.013 38.941 126.92 40.963C125.836 42.985 124.356 44.5295 122.48 45.5965C120.613 46.6548 118.513 47.184 116.182 47.184C113.833 47.184 111.725 46.6505 109.857 45.5835C107.99 44.5166 106.515 42.9721 105.43 40.9501C104.346 38.9281 103.804 36.4801 103.804 33.6063C103.804 30.7238 104.346 28.2716 105.43 26.2496C106.515 24.2276 107.99 22.6874 109.857 21.629C111.725 20.5621 113.833 20.0286 116.182 20.0286C118.513 20.0286 120.613 20.5621 122.48 21.629C124.356 22.6874 125.836 24.2276 126.92 26.2496C128.013 28.2716 128.559 30.7238 128.559 33.6063ZM122.893 33.6063C122.893 31.7392 122.613 30.1646 122.054 28.8825C121.503 27.6005 120.725 26.6282 119.718 25.9656C118.711 25.3031 117.532 24.9718 116.182 24.9718C114.831 24.9718 113.652 25.3031 112.645 25.9656C111.638 26.6282 110.855 27.6005 110.296 28.8825C109.746 30.1646 109.47 31.7392 109.47 33.6063C109.47 35.4734 109.746 37.048 110.296 38.3301C110.855 39.6121 111.638 40.5844 112.645 41.247C113.652 41.9095 114.831 42.2408 116.182 42.2408C117.532 42.2408 118.711 41.9095 119.718 41.247C120.725 40.5844 121.503 39.6121 122.054 38.3301C122.613 37.048 122.893 35.4734 122.893 33.6063Z" fill="white"/>
<path d="M145.308 38.3817V26.9982H150.807V46.8226H145.528V43.2217H145.321C144.874 44.3832 144.13 45.3168 143.088 46.0224C142.056 46.7279 140.795 47.0807 139.307 47.0807C137.982 47.0807 136.816 46.7796 135.809 46.1772C134.802 45.5749 134.015 44.7188 133.447 43.6089C132.888 42.4989 132.604 41.1695 132.595 39.6207V26.9982H138.094V38.6398C138.102 39.81 138.416 40.735 139.036 41.4147C139.655 42.0945 140.486 42.4344 141.527 42.4344C142.189 42.4344 142.809 42.2838 143.385 41.9826C143.962 41.6729 144.426 41.2168 144.779 40.6145C145.141 40.0122 145.317 39.268 145.308 38.3817Z" fill="white"/>
<path d="M160.858 47.1969C159.593 47.1969 158.466 46.9775 157.476 46.5386C156.487 46.0912 155.704 45.433 155.127 44.5639C154.559 43.6863 154.275 42.5935 154.275 41.2857C154.275 40.1843 154.477 39.2594 154.882 38.5108C155.286 37.7622 155.837 37.1599 156.534 36.7039C157.231 36.2478 158.022 35.9037 158.909 35.6713C159.803 35.439 160.741 35.2755 161.722 35.1809C162.875 35.0604 163.805 34.9486 164.51 34.8453C165.216 34.7335 165.728 34.57 166.046 34.3549C166.364 34.1398 166.523 33.8214 166.523 33.3998V33.3224C166.523 32.5049 166.265 31.8725 165.749 31.4251C165.241 30.9777 164.519 30.754 163.581 30.754C162.591 30.754 161.804 30.9734 161.219 31.4122C160.634 31.8424 160.247 32.3845 160.057 33.0384L154.972 32.6254C155.23 31.4208 155.738 30.3797 156.495 29.502C157.252 28.6158 158.229 27.936 159.425 27.4628C160.63 26.9809 162.023 26.74 163.607 26.74C164.708 26.74 165.762 26.8691 166.769 27.1272C167.784 27.3854 168.683 27.7855 169.466 28.3275C170.258 28.8696 170.882 29.5666 171.338 30.4184C171.794 31.2616 172.022 32.2726 172.022 33.4514V46.8226H166.807V44.0735H166.653C166.334 44.693 165.908 45.2394 165.375 45.7126C164.841 46.1773 164.2 46.5429 163.452 46.8097C162.703 47.0678 161.838 47.1969 160.858 47.1969ZM162.432 43.4023C163.241 43.4023 163.955 43.2432 164.575 42.9248C165.194 42.5978 165.68 42.159 166.033 41.6083C166.386 41.0577 166.562 40.4338 166.562 39.7369V37.6331C166.39 37.745 166.153 37.8482 165.852 37.9429C165.56 38.0289 165.229 38.1107 164.859 38.1881C164.489 38.2569 164.119 38.3215 163.749 38.3817C163.379 38.4333 163.043 38.4807 162.742 38.5237C162.097 38.6183 161.533 38.7689 161.051 38.9754C160.569 39.1819 160.195 39.4616 159.928 39.8143C159.662 40.1585 159.528 40.5887 159.528 41.105C159.528 41.8536 159.799 42.4258 160.341 42.8216C160.892 43.2088 161.589 43.4023 162.432 43.4023Z" fill="white"/>
<path d="M181.785 20.39V46.8226H176.287V20.39H181.785Z" fill="white"/>
<path d="M186.19 46.8226V26.9982H191.688V46.8226H186.19ZM188.952 24.4427C188.134 24.4427 187.433 24.1716 186.848 23.6296C186.272 23.0789 185.983 22.4206 185.983 21.6549C185.983 20.8977 186.272 20.248 186.848 19.706C187.433 19.1553 188.134 18.88 188.952 18.88C189.769 18.88 190.466 19.1553 191.043 19.706C191.628 20.248 191.92 20.8977 191.92 21.6549C191.92 22.4206 191.628 23.0789 191.043 23.6296C190.466 24.1716 189.769 24.4427 188.952 24.4427Z" fill="white"/>
<path d="M210.535 27.992C210.431 26.9508 209.988 26.142 209.205 25.5655C208.422 24.989 207.36 24.7008 206.017 24.7008C205.105 24.7008 204.335 24.8299 203.707 25.088C203.079 25.3375 202.597 25.686 202.262 26.1334C201.935 26.5808 201.771 27.0885 201.771 27.6564C201.754 28.1296 201.853 28.5426 202.068 28.8954C202.292 29.2482 202.597 29.5536 202.984 29.8118C203.372 30.0613 203.819 30.2807 204.327 30.47C204.834 30.6507 205.376 30.8056 205.953 30.9346L208.328 31.5025C209.481 31.7607 210.539 32.1048 211.503 32.5351C212.466 32.9653 213.301 33.4944 214.007 34.1226C214.712 34.7507 215.259 35.4906 215.646 36.3425C216.042 37.1943 216.244 38.1709 216.252 39.2723C216.244 40.8899 215.831 42.2924 215.013 43.4798C214.204 44.6586 213.034 45.5749 211.503 46.2289C209.98 46.8742 208.143 47.1969 205.992 47.1969C203.858 47.1969 201.999 46.8699 200.416 46.216C198.841 45.562 197.611 44.5941 196.725 43.312C195.847 42.0214 195.387 40.4252 195.344 38.5237H200.752C200.812 39.4099 201.066 40.1499 201.513 40.7436C201.969 41.3287 202.576 41.7718 203.333 42.073C204.099 42.3655 204.963 42.5118 205.927 42.5118C206.874 42.5118 207.695 42.3741 208.392 42.0988C209.098 41.8234 209.644 41.4406 210.031 40.9501C210.419 40.4597 210.612 39.8961 210.612 39.2594C210.612 38.6657 210.436 38.1666 210.083 37.7622C209.739 37.3578 209.231 37.0136 208.56 36.7297C207.897 36.4457 207.084 36.1876 206.121 35.9553L203.243 35.2325C201.014 34.6904 199.254 33.8429 197.964 32.6899C196.673 31.537 196.032 29.9839 196.041 28.0307C196.032 26.4303 196.458 25.0321 197.318 23.8361C198.187 22.6401 199.379 21.7065 200.894 21.0353C202.408 20.3642 204.129 20.0286 206.056 20.0286C208.018 20.0286 209.73 20.3642 211.193 21.0353C212.664 21.7065 213.809 22.6401 214.626 23.8361C215.444 25.0321 215.865 26.4174 215.891 27.992H210.535Z" fill="white"/>
<path d="M219.908 54.2567V26.9982H225.329V30.328H225.574C225.815 29.7946 226.163 29.2525 226.619 28.7018C227.084 28.1425 227.686 27.6779 228.426 27.3079C229.175 26.9293 230.104 26.74 231.214 26.74C232.66 26.74 233.993 27.1186 235.215 27.8758C236.437 28.6244 237.414 29.7559 238.145 31.2702C238.876 32.776 239.242 34.6646 239.242 36.9362C239.242 39.1475 238.885 41.0146 238.171 42.5376C237.465 44.052 236.502 45.2007 235.28 45.9837C234.067 46.758 232.707 47.1452 231.201 47.1452C230.134 47.1452 229.227 46.9689 228.478 46.6161C227.738 46.2633 227.131 45.8202 226.658 45.2867C226.185 44.7446 225.824 44.1982 225.574 43.6476H225.406V54.2567H219.908ZM225.29 36.9104C225.29 38.0892 225.454 39.1174 225.781 39.995C226.108 40.8727 226.581 41.5567 227.2 42.0472C227.82 42.529 228.573 42.7699 229.459 42.7699C230.354 42.7699 231.111 42.5247 231.73 42.0343C232.35 41.5352 232.819 40.8469 233.137 39.9692C233.464 39.083 233.628 38.0633 233.628 36.9104C233.628 35.766 233.469 34.7593 233.15 33.8902C232.832 33.0212 232.363 32.3415 231.743 31.851C231.124 31.3606 230.362 31.1153 229.459 31.1153C228.564 31.1153 227.807 31.352 227.187 31.8252C226.576 32.2984 226.108 32.9696 225.781 33.8386C225.454 34.7077 225.29 35.7316 225.29 36.9104Z" fill="white"/>
<path d="M251.942 47.2098C249.903 47.2098 248.148 46.7968 246.676 45.9707C245.213 45.1361 244.086 43.9573 243.295 42.4344C242.503 40.9028 242.107 39.0916 242.107 37.0007C242.107 34.9615 242.503 33.1718 243.295 31.6316C244.086 30.0914 245.201 28.8911 246.638 28.0307C248.083 27.1702 249.778 26.74 251.723 26.74C253.031 26.74 254.248 26.9508 255.375 27.3724C256.511 27.7855 257.5 28.4093 258.344 29.2439C259.196 30.0785 259.858 31.1282 260.331 32.3931C260.805 33.6493 261.041 35.1207 261.041 36.8071V38.3172H244.301V34.9099H255.866C255.866 34.1183 255.694 33.417 255.349 32.8061C255.005 32.1952 254.528 31.7176 253.917 31.3735C253.314 31.0207 252.613 30.8443 251.813 30.8443C250.978 30.8443 250.238 31.0379 249.593 31.4251C248.956 31.8037 248.457 32.3156 248.096 32.961C247.735 33.5977 247.55 34.3075 247.541 35.0905V38.3301C247.541 39.311 247.722 40.1585 248.083 40.8727C248.453 41.5868 248.974 42.1375 249.645 42.5247C250.316 42.9119 251.112 43.1055 252.032 43.1055C252.643 43.1055 253.203 43.0195 253.71 42.8474C254.218 42.6753 254.652 42.4171 255.014 42.073C255.375 41.7288 255.651 41.3072 255.84 40.8081L260.925 41.1437C260.667 42.3655 260.138 43.4325 259.338 44.3445C258.546 45.248 257.522 45.9535 256.266 46.4612C255.018 46.9602 253.577 47.2098 251.942 47.2098Z" fill="white"/>
<path d="M264.629 46.8226V26.9982H269.96V30.4571H270.166C270.527 29.2267 271.134 28.2974 271.986 27.6693C272.838 27.0326 273.819 26.7142 274.929 26.7142C275.204 26.7142 275.501 26.7314 275.819 26.7658C276.138 26.8003 276.417 26.8476 276.658 26.9078V31.7865C276.4 31.709 276.043 31.6402 275.587 31.58C275.131 31.5197 274.713 31.4896 274.335 31.4896C273.526 31.4896 272.803 31.666 272.167 32.0188C271.539 32.363 271.039 32.8448 270.669 33.4643C270.308 34.0838 270.127 34.798 270.127 35.6068V46.8226H264.629Z" fill="white"/>
<path d="M279.501 46.8226V26.9982H284.741V30.4958H284.973C285.386 29.3342 286.074 28.4179 287.038 27.7467C288.002 27.0756 289.155 26.74 290.497 26.74C291.857 26.74 293.014 27.0799 293.969 27.7596C294.924 28.4308 295.561 29.3428 295.879 30.4958H296.086C296.49 29.3601 297.221 28.4523 298.28 27.7725C299.347 27.0842 300.607 26.74 302.061 26.74C303.911 26.74 305.413 27.3294 306.566 28.5082C307.727 29.6784 308.308 31.339 308.308 33.4901V46.8226H302.823V34.5743C302.823 33.4729 302.53 32.6469 301.945 32.0962C301.36 31.5456 300.629 31.2702 299.751 31.2702C298.753 31.2702 297.974 31.5886 297.415 32.2253C296.856 32.8534 296.576 33.6837 296.576 34.7163V46.8226H291.246V34.4581C291.246 33.4858 290.966 32.7114 290.407 32.135C289.856 31.5585 289.129 31.2702 288.226 31.2702C287.615 31.2702 287.064 31.4251 286.574 31.7348C286.092 32.036 285.709 32.4619 285.425 33.0126C285.141 33.5547 284.999 34.1914 284.999 34.9228V46.8226H279.501Z" fill="white"/>
<path d="M30.4956 22.4613C27.1481 23.0618 23.6655 24.2176 20.5882 25.7638C18.0813 27.0247 15.0041 28.9912 14.8689 29.4265C14.8089 29.6217 15.2743 30.4473 16.4751 32.2336C17.4208 33.6296 18.2615 34.7855 18.3665 34.8305C18.4566 34.8756 19.3723 34.4853 20.3931 33.9899C23.9357 32.2486 27.8386 31.2128 31.4413 31.0627C32.5371 31.0177 33.5278 30.8976 33.6629 30.8075C33.8731 30.6574 33.8731 30.2671 33.6479 26.8896C33.3327 21.8159 33.3927 22.1611 32.6271 22.1761C32.2819 22.1761 31.3212 22.3112 30.4956 22.4613Z" fill="white"/>
<path d="M56.2847 33.8398C54.3783 36.1366 52.7571 38.1631 52.652 38.3282C52.5019 38.6134 52.6069 38.7935 53.6878 40.0094C56.3447 43.0267 57.8308 45.4134 59.2569 48.9561C59.9924 50.8024 60.1425 51.0576 60.4578 51.0877C60.6529 51.1177 63.5201 50.0369 66.8225 48.6859C71.9263 46.6143 72.827 46.209 72.872 45.9238C72.932 45.5485 71.4459 42.5613 70.2901 40.73C68.819 38.3882 66.8825 35.9564 64.8711 33.8849C62.8446 31.7983 60.3527 29.6667 59.9624 29.6667C59.8273 29.6667 58.1761 31.5431 56.2847 33.8398Z" fill="white"/>
<path d="M10.1705 33.5096C7.5285 36.2716 5.48698 39.2438 3.73068 42.8615C2.57482 45.2183 1.67415 47.56 1.79424 47.8753C1.88431 48.1154 4.99162 49.3614 5.33687 49.3013C5.45696 49.2713 5.98235 48.4907 6.50774 47.56C8.75941 43.522 11.1462 40.5948 14.4036 37.8778C15.2893 37.1423 16.0098 36.4818 16.0098 36.4067C16.0098 36.3467 15.6195 35.8213 15.1542 35.2509C12.5572 32.1886 12.3171 31.9334 12.0168 31.9184C11.7917 31.9184 11.1912 32.4438 10.1705 33.5096Z" fill="white"/>
<path d="M67.393 51.643C63.8954 52.6488 60.9682 53.5494 60.8782 53.6395C60.7581 53.7596 60.7581 54.0748 60.8932 54.8404C61.3885 57.7075 61.3285 62.0758 60.7431 64.9279C60.5779 65.7385 60.4428 66.489 60.4428 66.5791C60.4428 66.8193 76.3847 66.8043 76.6249 66.5641C76.8951 66.2939 76.85 61.2652 76.5798 58.8784C76.3246 56.6718 75.7542 53.7746 75.2288 51.8532C74.6584 49.8417 74.6134 49.7816 74.148 49.7967C73.9078 49.8117 70.8756 50.6373 67.393 51.643Z" fill="white"/>
<path d="M0.698365 51.658C0.623309 51.8532 0.443175 52.7839 0.293064 53.7145C-0.217315 56.8819 -0.0221703 65.3332 0.578275 66.474C0.743398 66.8043 2.07939 66.8493 2.31957 66.5641C2.39462 66.444 2.4997 64.8978 2.54474 62.9914C2.64981 59.2236 2.85997 57.7676 3.77565 54.39C4.24099 52.6337 4.30104 52.2735 4.13592 52.1083C3.91075 51.8982 1.70411 51.2827 1.17872 51.2827C0.953554 51.2827 0.788431 51.4178 0.698365 51.658Z" fill="white"/>
<path d="M55.6839 1.3782C53.3278 2.80424 51.4684 4.8461 50.1975 7.4177C48.2679 11.2625 48.1395 15.9612 49.8739 18.6955C50.2252 19.2175 50.6805 19.8261 50.9067 19.9937C51.4665 20.4928 51.424 21.0734 50.6676 22.6106C49.6819 24.6273 48.7131 25.3857 45.7628 26.46C41.9704 27.8633 40.0208 29.2074 38.8931 31.2077C37.6644 33.3947 37.6063 35.3702 38.6112 39.7315C39.4148 43.1541 39.5173 44.0244 39.2412 45.399C38.7414 47.9956 37.2571 49.4558 33.8085 50.698C30.5883 51.8526 29.1783 53.0361 27.8768 55.6364C27.4454 56.4894 26.9553 57.869 26.7918 58.701C25.9616 62.8842 26.6636 65.0446 28.6782 64.4448C29.7395 64.1288 29.9921 63.6619 30.0027 62.053C30.0015 59.1552 30.8766 56.7015 32.3517 55.3419C32.9082 54.8433 33.5849 54.4852 35.1537 53.9006C36.3014 53.4805 37.6149 52.8936 38.0685 52.6411C39.4183 51.8476 41.0125 50.2959 41.6854 49.136C43.1342 46.5702 43.2612 44.3 42.1883 39.8414C41.1421 35.4728 41.1377 34.1425 42.1114 32.6776C42.8219 31.6437 43.9919 30.9037 46.4872 29.9453C49.614 28.7402 50.5677 28.2604 51.6501 27.2919C52.7505 26.3181 54.0853 24.1583 54.4746 22.7695C54.7028 21.9574 54.8146 21.8067 55.2191 21.7841C57.7488 21.5988 59.721 20.6591 62.0029 18.5894C65.234 15.63 66.9413 11.4989 66.7276 7.09785C66.6161 4.48744 65.5242 2.26688 63.7184 1.00298C61.6577 -0.459186 58.4702 -0.312999 55.6839 1.3782Z" fill="#FF6A13"/>
</svg>
