<svg width="123" height="123" viewBox="0 0 123 123" fill="none" xmlns="http://www.w3.org/2000/svg">
<path fill-rule="evenodd" clip-rule="evenodd" d="M66.3206 14.1306L66.3592 14.7406C66.3736 14.9677 66.4145 15.1986 66.4851 15.43C66.9684 17.0148 68.6449 17.9078 70.2297 17.4245C71.1337 17.1489 71.8125 16.4874 72.1408 15.6678L72.3699 15.0959L72.3551 14.485C72.3487 14.2205 72.3067 13.9505 72.2242 13.68C71.7409 12.0951 70.0644 11.2022 68.4796 11.6854C67.5362 11.9731 66.8373 12.6816 66.5273 13.5509L66.3206 14.1306ZM47.6317 14.9066C47.5937 14.9181 47.5557 14.9296 47.5177 14.9412C21.6325 22.8346 7.04733 50.2176 14.9408 76.1028C22.8342 101.988 50.2172 116.573 76.1024 108.68C101.988 100.786 116.573 73.4033 108.679 47.5181C108.04 45.4221 107.273 43.4003 106.39 41.4585C100.182 27.8161 88.2179 18.1233 74.36 14.4379C74.3582 14.4375 74.3564 14.437 74.3546 14.4365C74.3545 14.4365 74.3545 14.4365 74.3545 14.4365C74.3437 13.9924 74.2731 13.5423 74.1372 13.0966C73.3318 10.4552 70.5376 8.96696 67.8962 9.77241C66.3217 10.2525 65.157 11.4393 64.6435 12.8791C59.0497 12.5546 53.3055 13.1912 47.6317 14.9066ZM104.472 42.0747C105.361 44.0028 106.13 46.0138 106.766 48.1015C114.338 72.9301 100.348 99.1954 75.519 106.767C50.6904 114.338 24.4251 100.348 16.8538 75.5194C9.28255 50.6908 23.2724 24.4255 48.1011 16.8542C48.4436 16.7498 48.7865 16.6494 49.1295 16.5531C54.2164 15.1255 59.3517 14.5941 64.3632 14.8671C64.3874 15.2481 64.4558 15.6323 64.572 16.0134C65.3775 18.6547 68.1717 20.143 70.813 19.3376C72.3211 18.8777 73.4534 17.7695 73.9974 16.4116C87.1534 19.9567 98.5131 29.151 104.472 42.0747Z" fill="#00B2A9"/>
<path d="M71.2668 13.9717C71.589 15.0282 70.9937 16.1459 69.9372 16.468C68.8806 16.7902 67.763 16.1949 67.4408 15.1384C67.1186 14.0818 67.7139 12.9642 68.7705 12.642C69.827 12.3198 70.9447 12.9151 71.2668 13.9717Z" fill="#FF6A13"/>
<path d="M41.8263 70.3515H31.541L30.0495 74.8821H23.9668L33.219 48.5952H40.4824L49.6957 74.8821H43.3101L41.8186 70.3515H41.8263ZM36.6681 54.8102L33.2656 65.0957H40.0707L36.6681 54.8102V54.8102Z" fill="white"/>
<path d="M66.8099 48.5952H73.7315L63.3296 61.7191L74.0345 74.8821H66.3515L57.48 63.6764V74.8821H51.5527V48.5952H57.48V60.838L66.8099 48.5952Z" fill="white"/>
<path d="M83.7917 74.8743V65.0489L74.2754 48.5874H80.8086L86.8524 59.6371L92.9351 48.5874H99.2819L89.7656 65.0878V74.8743H83.7994H83.7917Z" fill="white"/>
</svg>
