<svg width="452" height="452" viewBox="0 0 452 452" fill="none" xmlns="http://www.w3.org/2000/svg">
<path d="M226.071 452H225.188L225.294 436.113H226.971L227.059 452H226.071ZM222.4 451.965L220.565 451.929L220.935 436.043L222.629 436.078L222.4 451.965ZM229.882 451.965L229.6 436.078L231.312 436.043L231.682 451.929L229.882 451.965ZM217.741 451.841L215.906 451.771L216.612 435.901L218.306 435.972L217.741 451.841ZM234.523 451.841L233.923 435.972L235.635 435.901L236.323 451.771L234.523 451.841ZM213.083 451.629L211.247 451.523L212.271 435.672L213.965 435.778L213.083 451.647V451.629ZM239.164 451.629L238.229 435.778L239.941 435.672L240.964 451.523L239.147 451.629H239.164ZM208.424 451.329L206.589 451.188L207.948 435.354L209.642 435.495L208.442 451.329H208.424ZM243.788 451.329L242.57 435.495L244.264 435.354L245.623 451.188L243.788 451.329ZM203.783 450.923L201.948 450.729L203.624 434.93L205.301 435.107L203.765 450.923H203.783ZM248.429 450.923L246.894 435.107L248.57 434.93L250.246 450.729L248.429 450.923ZM199.142 450.429L197.324 450.199L199.318 434.436L200.995 434.648L199.142 450.429ZM253.052 450.429L251.199 434.648L252.876 434.436L254.887 450.199L253.07 450.429H253.052ZM194.518 449.846L192.701 449.582L195.03 433.871L196.707 434.118L194.518 449.846ZM257.676 449.846L255.487 434.118L257.164 433.871L259.493 449.582L257.676 449.846ZM189.913 449.176L188.095 448.876L190.742 433.218L192.419 433.501L189.913 449.193V449.176ZM262.281 449.176L259.776 433.483L261.452 433.201L264.117 448.858L262.299 449.158L262.281 449.176ZM185.325 448.399C184.707 448.293 184.107 448.17 183.489 448.064L186.507 432.459C187.054 432.565 187.601 432.671 188.148 432.759L185.307 448.399H185.325ZM266.887 448.381L264.046 432.759L265.705 432.441L268.687 448.046L266.887 448.381ZM180.754 447.516L178.954 447.146L182.254 431.612L183.913 431.947L180.754 447.516ZM271.458 447.499L268.299 431.93L269.958 431.577L273.258 447.11L271.458 447.481V447.499ZM176.184 446.546L174.401 446.14L178.019 430.676L179.678 431.065L176.184 446.563V446.546ZM276.01 446.528L272.516 431.029L274.158 430.659L277.793 446.122L275.993 446.528H276.01ZM171.648 445.486C171.048 445.345 170.449 445.186 169.866 445.027L173.819 429.652L175.46 430.058L171.648 445.486ZM280.546 445.469L276.734 430.041L278.375 429.635L282.328 445.01C281.728 445.169 281.146 445.31 280.546 445.469ZM167.131 444.321L165.366 443.845L169.619 428.54L171.26 428.982L167.131 444.321ZM285.063 444.304L280.934 428.964L282.557 428.523L286.828 443.827L285.063 444.321V444.304ZM162.649 443.068L160.902 442.556L165.472 427.34L167.113 427.834L162.649 443.086V443.068ZM289.545 443.033L285.081 427.781L286.722 427.287L291.275 442.503L289.528 443.015L289.545 443.033ZM158.166 441.709L156.402 441.144L161.308 426.034L162.931 426.546L158.166 441.691V441.709ZM293.975 441.691L289.228 426.528L290.834 426.016L295.722 441.126L293.975 441.691ZM153.702 440.261L151.973 439.679L157.161 424.657L158.784 425.222L153.702 440.279V440.261ZM298.404 440.261L293.339 425.204L294.928 424.657L300.151 439.661C299.569 439.855 298.986 440.067 298.404 440.261ZM149.29 438.743L147.561 438.108L153.084 423.209L154.672 423.792L149.29 438.743ZM302.816 438.726L297.416 423.792L299.004 423.209L304.545 438.108L302.816 438.743V438.726ZM144.914 437.102C144.332 436.89 143.767 436.66 143.185 436.431L149.026 421.656L150.596 422.274L144.896 437.102H144.914ZM307.174 437.102L301.51 422.256L303.08 421.638L308.904 436.413C308.339 436.643 307.757 436.854 307.192 437.084L307.174 437.102ZM311.498 435.389L305.516 420.667L307.068 420.032L313.192 434.683C312.627 434.913 312.062 435.16 311.498 435.389ZM140.555 435.389L138.879 434.701L145.002 420.05L146.59 420.703L140.573 435.407L140.555 435.389ZM315.786 433.589L309.486 419.008L311.021 418.337L317.462 432.865L315.786 433.607V433.589ZM136.249 433.589L134.555 432.847L140.996 418.337L142.549 419.026L136.232 433.607L136.249 433.589ZM320.021 431.7L313.421 417.243L314.957 416.537L321.68 430.923L320.021 431.7ZM131.979 431.665L130.32 430.906L137.043 416.519L138.596 417.243L131.961 431.682L131.979 431.665ZM324.239 429.705L317.321 415.407L318.856 414.666L325.862 428.929L324.239 429.723V429.705ZM127.761 429.67L126.103 428.858L133.144 414.613L134.661 415.354L127.744 429.652L127.761 429.67ZM328.403 427.64L321.186 413.483L322.686 412.706L330.009 426.81L328.386 427.64H328.403ZM123.579 427.605L121.938 426.757L129.261 412.653L130.779 413.43L123.579 427.587V427.605ZM332.497 425.504L325.033 411.488L326.515 410.694L334.121 424.639L332.515 425.504H332.497ZM119.432 425.434L117.826 424.551L125.45 410.606L126.95 411.418L119.45 425.416L119.432 425.434ZM336.574 423.262L328.791 409.405L330.274 408.576L338.162 422.362L336.574 423.262ZM115.321 423.192L113.732 422.292L121.62 408.505L123.12 409.353L115.321 423.192ZM340.615 420.95L332.515 407.287L333.997 406.405L342.168 420.032L340.615 420.95ZM111.279 420.879L109.709 419.944L117.879 406.334L119.344 407.199L111.279 420.879ZM344.568 418.567L336.221 405.045L337.668 404.145L346.12 417.596L344.568 418.567ZM107.291 418.461L105.738 417.49L114.209 404.039L115.656 404.939L107.309 418.443L107.291 418.461ZM348.52 416.078L339.891 402.733L341.321 401.797L350.038 415.089L348.52 416.078ZM103.356 415.954L101.856 414.966L110.556 401.674L112.003 402.627L103.374 415.954H103.356ZM352.403 413.501L343.491 400.35L344.903 399.379L353.903 412.477L352.403 413.501ZM99.4562 413.377L97.9739 412.371L106.938 399.255L108.368 400.226L99.4562 413.377ZM356.214 410.871L347.056 397.879L348.432 396.89L357.697 409.794L356.197 410.853L356.214 410.871ZM95.6269 410.729C95.1152 410.376 94.6211 410.023 94.127 409.653L103.427 396.767C103.886 397.102 104.344 397.42 104.803 397.737L95.6446 410.712L95.6269 410.729ZM359.991 408.134L350.55 395.354L351.926 394.331L361.438 407.058L359.991 408.134ZM91.8506 407.993C91.3564 407.623 90.8623 407.252 90.3682 406.899L99.9327 394.207L101.291 395.213L91.8506 407.993ZM363.696 405.345L354.026 392.742L355.35 391.718L365.143 404.216C364.667 404.586 364.173 404.975 363.696 405.345ZM88.1271 405.169L86.6801 404.039L96.474 391.542L97.8151 392.583L88.1095 405.169H88.1271ZM367.367 402.451L357.414 390.076L358.738 389L368.761 401.321L367.349 402.451H367.367ZM84.4566 402.292L83.0273 401.144L93.0858 388.858L94.4093 389.935L84.4566 402.309V402.292ZM370.967 399.503L360.749 387.34L362.055 386.228L372.343 398.338L370.949 399.503H370.967ZM80.8744 399.344C80.3979 398.938 79.9214 398.549 79.445 398.143L89.7859 386.087C90.2094 386.458 90.6329 386.811 91.0564 387.164L80.8744 399.361V399.344ZM374.496 396.502L364.049 384.534L365.32 383.404L375.855 395.301L374.478 396.502H374.496ZM77.3097 396.308L75.951 395.107L86.486 383.21L87.7742 384.339L77.3097 396.29V396.308ZM377.973 393.413L367.296 381.656L368.567 380.491L379.314 392.177L377.973 393.395V393.413ZM73.851 393.218L72.5099 391.983L83.2919 380.315L84.5448 381.48L73.8334 393.218H73.851ZM381.396 390.253L370.473 378.726L371.708 377.543L382.719 388.982L381.396 390.253ZM70.4452 390.041L69.1217 388.77L80.1685 377.349L81.3861 378.532L70.4452 390.041ZM384.731 387.023L373.596 375.69L374.796 374.507L386.055 385.716C385.613 386.158 385.19 386.581 384.749 387.023H384.731ZM67.11 386.811C66.6688 386.369 66.2277 385.946 65.8042 385.505L77.0803 374.313L78.2627 375.496L67.11 386.793V386.811ZM388.013 383.722L376.649 372.618L377.831 371.4L389.284 382.398L388.013 383.722ZM63.8277 383.51L62.5572 382.186L74.0451 371.206L75.2274 372.424L63.8277 383.492V383.51ZM391.243 380.35L379.631 369.512L380.796 368.258L392.478 379.009L391.243 380.332V380.35ZM60.5984 380.138L59.3808 378.814L71.0629 368.064L72.2452 369.335L60.5984 380.138ZM394.384 376.926L382.543 366.334L383.69 365.046L395.601 375.566L394.401 376.926H394.384ZM57.475 376.714L56.2574 375.337L68.1865 364.852L69.3158 366.122L57.475 376.714ZM397.454 373.43L385.419 363.069L386.531 361.78L398.654 372.054L397.472 373.448L397.454 373.43ZM54.4045 373.201L53.2221 371.824L65.3454 361.568L66.4571 362.874L54.4045 373.219V373.201ZM400.454 369.865L388.208 359.75L389.284 358.444L401.619 368.453L400.454 369.865ZM51.4222 369.653C51.034 369.176 50.6281 368.7 50.2399 368.205L62.6101 358.25C62.9631 358.691 63.316 359.115 63.6689 359.538L51.4222 369.653ZM403.384 366.228L390.925 356.379L391.984 355.037L404.513 364.799L403.384 366.228ZM48.4929 366.017L47.3635 364.569L59.9278 354.843L60.969 356.184L48.4929 366.017ZM406.225 362.557L393.59 352.936C393.925 352.495 394.26 352.036 394.596 351.595L407.336 361.092C406.966 361.586 406.595 362.08 406.225 362.574V362.557ZM45.6517 362.345L44.5577 360.897L57.2809 351.383L58.3044 352.76L45.6517 362.345ZM409.013 358.797L396.148 349.477L397.154 348.082L410.072 357.332L409.013 358.797ZM42.8812 358.603L41.8224 357.12L54.7574 347.905L55.7456 349.282L42.8812 358.603ZM411.73 354.966L398.654 345.964L399.643 344.516L412.754 353.484L411.748 354.949L411.73 354.966ZM40.1813 354.79L39.1578 353.289L52.2692 344.322L53.2398 345.734L40.1813 354.772V354.79ZM414.342 351.118L401.107 342.345L402.042 340.915L415.33 349.618L414.325 351.136L414.342 351.118ZM37.5696 350.942L36.5814 349.459L49.8516 340.721L50.8046 342.169L37.5696 350.942ZM416.883 347.217L403.472 338.726L404.389 337.279L417.854 345.699L416.883 347.235V347.217ZM35.0461 347.058L34.0932 345.522L47.5576 337.085L48.4752 338.532L35.0638 347.041L35.0461 347.058ZM419.354 343.263L405.766 335.019L406.648 333.554L420.289 341.674L419.354 343.245V343.263ZM32.5933 343.104L31.6756 341.568L45.2988 333.395L46.1811 334.878L32.5933 343.104ZM421.718 339.256L407.989 331.277L408.836 329.812L422.636 337.667L421.718 339.256ZM30.2286 339.097L29.3286 337.544L43.1283 329.671L43.993 331.171L30.2286 339.097ZM424.012 335.196L410.107 327.5L410.919 326.017L424.877 333.59L423.995 335.214L424.012 335.196ZM27.9346 335.055L27.0699 333.484L41.0107 325.876L41.8401 327.394L27.9346 335.055ZM426.236 331.065L412.172 323.687L412.966 322.169L427.083 329.459L426.236 331.083V331.065ZM25.7464 330.959L24.8994 329.335L39.0343 322.08L39.8107 323.581L25.7464 330.959ZM428.354 326.917L414.148 319.803L414.889 318.285L429.165 325.24C428.901 325.787 428.618 326.352 428.354 326.9V326.917ZM23.6288 326.829C23.3464 326.282 23.0818 325.734 22.8171 325.17L37.0932 318.215L37.8343 319.715L23.6288 326.829ZM430.383 322.716L416.036 315.885L416.76 314.349L431.177 321.021C430.912 321.586 430.648 322.133 430.383 322.698V322.716ZM21.5818 322.645L20.8053 321.004L35.2226 314.331L35.9461 315.867L21.5818 322.645ZM432.342 318.462L417.854 311.966L418.542 310.395L433.083 316.785L432.342 318.462ZM19.6407 318.426L18.8995 316.75L33.458 310.377L34.1462 311.913L19.6583 318.409L19.6407 318.426ZM434.195 314.19L419.583 307.976L420.236 306.423L434.918 312.495C434.689 313.06 434.442 313.643 434.195 314.208V314.19ZM17.7701 314.172L17.0643 312.495L31.7462 306.423L32.3992 307.994L17.7701 314.172ZM16.0055 309.865L15.3349 308.171L30.1404 302.416L30.758 304.005L16.0055 309.865ZM435.977 309.865L421.224 303.969L421.842 302.381L436.647 308.135L435.977 309.848V309.865ZM14.329 305.54C14.1173 304.958 13.9055 304.393 13.6938 303.811L28.6228 298.374L29.2051 299.945L14.3467 305.54H14.329ZM437.671 305.487L422.795 299.927L423.395 298.321L438.306 303.793L437.671 305.505V305.487ZM12.7408 301.145L12.1409 299.433L27.1581 294.261L27.7228 295.885L12.7408 301.145ZM439.277 301.11L424.295 295.814L424.86 294.208L439.877 299.362L439.277 301.11ZM11.2585 296.75L10.6938 295.002L25.817 290.165L26.3464 291.772L11.2585 296.75ZM440.794 296.679L425.707 291.719L426.236 290.112L441.377 294.932C441.183 295.514 441.006 296.114 440.812 296.697L440.794 296.679ZM9.8468 292.301C9.67034 291.719 9.49387 291.119 9.3174 290.536L24.5464 286.035L25.0229 287.659L9.8468 292.319V292.301ZM442.189 292.213L427.012 287.553L427.507 285.929L442.736 290.448L442.206 292.213H442.189ZM8.52331 287.818C8.36449 287.235 8.18802 286.635 8.0292 286.035L23.3464 281.851L23.8053 283.475L8.52331 287.818ZM443.512 287.729L428.23 283.387L428.689 281.763L444.006 285.964L443.512 287.729ZM7.30569 283.316L6.84688 281.534L22.2524 277.668L22.6759 279.309L7.30569 283.316ZM444.73 283.228L429.359 279.203L429.783 277.579L445.188 281.445C445.047 282.045 444.888 282.646 444.73 283.228ZM6.15866 278.78L5.73514 277.015L21.2112 273.431L21.5994 275.108L6.14102 278.78H6.15866ZM445.859 278.692L430.401 275.02L430.789 273.378L446.265 276.909L445.841 278.692H445.859ZM5.13516 274.243L4.76458 272.46L20.3112 269.195L20.6642 270.872L5.13516 274.226V274.243ZM446.9 274.155L431.371 270.801L431.724 269.124L447.271 272.39L446.9 274.155ZM4.19989 269.671L3.86461 267.888L19.4818 264.958L19.7995 266.653L4.19989 269.671ZM447.835 269.583L432.236 266.565L432.553 264.888L448.171 267.818L447.835 269.601V269.583ZM3.35285 265.082L3.05286 263.299L18.723 260.704L19.0054 262.399L3.35285 265.099V265.082ZM448.682 264.994L433.03 262.293L433.312 260.598L448.982 263.193L448.682 264.976V264.994ZM2.59405 260.475L2.32935 258.692L18.0525 256.415L18.2995 258.109L2.59405 260.492V260.475ZM449.424 260.386L433.718 258.003L433.965 256.309L449.688 258.586L449.424 260.386ZM1.94113 255.885L1.71172 254.067L17.4701 252.107L17.6819 253.784L1.94113 255.885ZM450.077 255.779L434.336 253.731L434.547 252.037L450.306 253.996L450.077 255.797V255.779ZM1.37643 251.26L1.18232 249.442L16.976 247.818L17.1525 249.495L1.37643 251.26ZM450.641 251.154L434.848 249.424L435.024 247.712L450.818 249.336L450.624 251.137L450.641 251.154ZM0.917624 246.635L0.758804 244.799L16.5878 243.493L16.729 245.188L0.917624 246.635ZM451.1 246.529L435.289 245.135L435.43 243.423L451.259 244.729L451.1 246.529ZM0.547044 241.993L0.423518 240.157L16.2702 239.186L16.376 240.881L0.529397 241.993H0.547044ZM451.471 241.887L435.624 240.81L435.73 239.098L451.576 240.069L451.453 241.887H451.471ZM0.264698 237.35L0.176467 235.514L16.0408 234.861L16.1113 236.556L0.247051 237.35H0.264698ZM451.735 237.262L435.871 236.468L435.942 234.773L451.806 235.426L451.718 237.262H451.735ZM0.0882316 232.708L0.035294 230.872L15.9172 230.537L15.9525 232.231L0.0705846 232.69L0.0882316 232.708ZM451.912 232.62L436.03 232.161L436.065 230.466L451.947 230.784L451.894 232.62H451.912ZM0 228.065V226.229H15.8819V227.924L0 228.065ZM452 227.959L436.118 227.818V226.124H452V227.959ZM436.118 224.217V222.523L451.982 222.24V224.076L436.118 224.217ZM15.8819 223.599L0 223.405L0.035294 221.569L15.9172 221.905V223.599H15.8819ZM436.012 219.892L435.959 218.198L451.824 217.598L451.876 219.433L435.995 219.892H436.012ZM15.9525 219.275L0.0705846 218.763L0.141173 216.927L16.0055 217.58L15.9525 219.275ZM435.836 215.568L435.747 213.873L451.594 212.937L451.7 214.773L435.836 215.568ZM16.129 214.932L0.264698 214.102L0.370577 212.267L16.2172 213.238L16.129 214.932ZM435.571 211.243L435.447 209.548L451.276 208.295L451.418 210.131L435.571 211.243ZM16.3937 210.607L0.547044 209.442L0.688216 207.607L16.5172 208.913L16.3937 210.607ZM435.218 206.918L435.059 205.241L450.871 203.652L451.047 205.488L435.236 206.936L435.218 206.918ZM16.7466 206.283L0.935268 204.8L1.11173 202.999L16.9231 204.588L16.7643 206.3L16.7466 206.283ZM434.777 202.593L434.583 200.881L450.359 199.028L450.571 200.828L434.795 202.593H434.777ZM17.1878 201.975L1.41173 200.157L1.62349 198.357L17.3995 200.263L17.2054 201.975H17.1878ZM434.248 198.304L434.018 196.609L449.741 194.42L449.988 196.221L434.248 198.321V198.304ZM17.7172 197.686L1.97642 195.55L2.22347 193.75L17.9466 195.991L17.7172 197.686ZM433.63 194.014L433.365 192.32L449.053 189.813L449.335 191.596L433.648 194.014H433.63ZM18.3525 193.397L2.66464 190.925L2.94698 189.142L18.6172 191.702L18.3525 193.397ZM432.942 189.743L432.642 188.048L448.277 185.206L448.594 186.989L432.942 189.743ZM19.076 189.125L3.44108 186.336L3.75872 184.553L19.376 187.43L19.076 189.125ZM432.165 185.488L431.83 183.811L447.394 180.652L447.747 182.435L432.165 185.506V185.488ZM19.8877 184.871L4.30577 181.746L4.67635 179.963L20.223 183.176L19.8877 184.871ZM431.301 181.252L430.93 179.575L446.424 176.08L446.812 177.845L431.301 181.252ZM20.7877 180.634L5.27633 177.192L5.6822 175.427L21.1583 178.957L20.7877 180.634ZM430.33 176.998L429.924 175.356L445.347 171.543L445.788 173.326L430.33 176.998ZM21.7583 176.38L6.31748 172.655L6.75865 170.872L22.1641 174.738L21.7583 176.38ZM429.271 172.797L428.83 171.173L444.165 167.024C444.324 167.624 444.483 168.207 444.641 168.807L429.271 172.797ZM22.8171 172.196L7.46451 168.154C7.62333 167.554 7.78215 166.971 7.94097 166.371L23.2582 170.572L22.8171 172.196ZM428.124 168.595C427.983 168.066 427.824 167.536 427.665 166.989L442.894 162.505C443.071 163.106 443.247 163.706 443.406 164.306L428.107 168.578L428.124 168.595ZM23.9641 168.013L8.69977 163.635L9.21152 161.87L24.4405 166.389L23.9641 168.013ZM426.907 164.465L426.412 162.858L441.553 158.057C441.73 158.64 441.924 159.24 442.1 159.822L426.907 164.465ZM25.217 163.847L10.0409 159.169C10.2174 158.587 10.4115 157.986 10.588 157.404L25.7111 162.241L25.1993 163.847H25.217ZM425.601 160.334L425.054 158.71L440.106 153.626L440.689 155.356L425.601 160.334ZM26.5405 159.716L11.4703 154.703L12.0526 152.956L27.0699 158.11L26.5228 159.716H26.5405ZM424.207 156.221L423.642 154.633L438.571 149.231C438.783 149.813 438.994 150.396 439.189 150.979L424.189 156.221H424.207ZM27.9699 155.603L13.0055 150.272L13.6232 148.543L28.5345 154.015L27.9522 155.621L27.9699 155.603ZM422.742 152.161L422.142 150.59L436.947 144.853C437.159 145.418 437.389 146.001 437.6 146.583L422.724 152.161H422.742ZM29.4698 151.543L14.629 145.877L15.282 144.182L30.0875 149.937L29.4698 151.543ZM421.171 148.137L420.536 146.548L435.236 140.546L435.924 142.223L421.171 148.137ZM31.058 147.483L16.3231 141.552C16.5525 140.987 16.7819 140.405 17.029 139.84L31.6933 145.93L31.058 147.501V147.483ZM419.513 144.13L418.842 142.576L433.418 136.274L434.142 137.951L419.513 144.13ZM32.7168 143.476L18.1231 137.228L18.8466 135.551L33.405 141.905L32.7168 143.476ZM417.801 140.175L417.113 138.64L431.548 132.003L432.306 133.679L417.819 140.175H417.801ZM34.4815 139.487L20.0112 132.938L20.77 131.261L35.1873 137.934L34.4815 139.487ZM416.001 136.257L415.277 134.739L429.571 127.819L430.365 129.478L416.001 136.257ZM36.3167 135.568L21.9877 128.702L22.7818 127.06L37.0579 134.033L36.3167 135.568ZM414.13 132.391L413.372 130.873L427.524 123.671L428.336 125.295L414.13 132.408V132.391ZM38.2402 131.667L24.0523 124.518C24.3347 123.971 24.617 123.424 24.8994 122.859L39.0166 130.149L38.2578 131.649L38.2402 131.667ZM412.172 128.56L411.378 127.06L425.371 119.54L426.218 121.146L412.172 128.543V128.56ZM40.2519 127.819L26.2228 120.387C26.5228 119.84 26.8052 119.293 27.1052 118.746L41.046 126.354C40.7813 126.848 40.5166 127.342 40.2519 127.837V127.819ZM410.125 124.747L409.295 123.265L423.148 115.48L424.03 117.086L410.125 124.747ZM42.3342 123.988L28.4463 116.274L29.3463 114.668L43.1636 122.506L42.3342 123.988ZM408.025 121.005L407.16 119.54L420.836 111.455L421.754 113.026L408.025 121.023V121.005ZM44.4871 120.246L30.7933 112.214L31.7109 110.661L45.3871 118.746L44.5047 120.246H44.4871ZM405.819 117.281L404.919 115.816L418.436 107.466L419.389 109.019L405.819 117.281ZM46.7105 116.504L33.1756 108.207L34.1285 106.672L47.6282 115.056L46.7282 116.522L46.7105 116.504ZM403.542 113.609L402.625 112.179L415.966 103.547L416.936 105.083L403.542 113.627V113.609ZM49.0223 112.832L35.6638 104.253L36.652 102.735L49.9575 111.402L49.0223 112.85V112.832ZM401.178 109.973L400.242 108.578L413.389 99.6638L414.413 101.182L401.178 109.973ZM51.4045 109.196L38.2049 100.37L39.2284 98.8695L52.3751 107.784L51.4222 109.214L51.4045 109.196ZM398.76 106.407L397.79 105.012L410.742 95.8333L411.783 97.3338L398.76 106.407ZM53.8574 105.63L40.8519 96.5218C41.2048 96.0098 41.5577 95.5156 41.9283 95.0037L54.8456 104.253C54.5103 104.712 54.1927 105.171 53.8751 105.63H53.8574ZM396.254 102.877L395.249 101.5L408.025 92.0734L409.101 93.5386L396.237 102.877H396.254ZM56.3809 102.1L43.5695 92.7089C43.94 92.2146 44.293 91.7204 44.6635 91.2261L57.3867 100.741L56.3809 102.1ZM393.678 99.3991L392.654 98.0575L405.237 88.3665L406.348 89.814L393.696 99.3991H393.678ZM58.9749 98.6224L46.3576 88.9843L47.4694 87.5368L60.0161 97.2808L58.9749 98.6224ZM391.031 95.9745L389.955 94.6153L402.36 84.6948L403.472 86.107L391.031 95.9922V95.9745ZM61.6396 95.1979L49.2164 85.295L50.3634 83.8652L62.6984 93.8739L61.6396 95.1979ZM388.296 92.5853L387.219 91.2967L399.378 81.0762C399.766 81.5528 400.172 82.0117 400.56 82.4883L388.296 92.5677V92.5853ZM64.3748 91.8263L52.1457 81.694C52.5339 81.2174 52.9398 80.7408 53.3457 80.2642L65.4512 90.5553C65.0983 90.979 64.7277 91.4026 64.3748 91.8263ZM385.525 89.2844L384.396 87.9781L396.378 77.5457L397.56 78.9226L385.525 89.2844ZM67.1806 88.543L55.1809 78.1283L56.3809 76.769L68.31 87.2544L67.1806 88.543ZM382.667 86.0187L381.537 84.7654L393.29 74.0859L394.507 75.4451L382.667 86.0364V86.0187ZM70.057 85.295L58.2867 74.6331L59.4867 73.3092L71.2217 84.0241L70.057 85.3127V85.295ZM379.755 82.8237L378.59 81.5881L390.113 70.6614L391.366 72.003L379.755 82.8237ZM73.004 82.1L61.4278 71.2263C61.8513 70.785 62.2748 70.326 62.6984 69.8847L74.151 80.882L72.9863 82.1H73.004ZM376.773 79.6816L375.59 78.4636L386.884 67.3075L388.155 68.6138L376.755 79.6816H376.773ZM76.0039 78.9756L64.6571 67.8547C65.0807 67.4134 65.5218 66.9721 65.963 66.5485L77.1862 77.7752L76.0039 78.9756ZM373.702 76.6102L372.502 75.4275L383.566 64.0242C384.008 64.4479 384.449 64.8892 384.89 65.3128L373.702 76.5925V76.6102ZM79.0568 75.9217L67.9394 64.5714L69.2452 63.3005L80.2567 74.7391L79.0391 75.9217H79.0568ZM370.596 73.5917L369.361 72.4443L380.196 60.8292C380.637 61.2528 381.096 61.6765 381.537 62.1001L370.596 73.6093V73.5917ZM82.1802 72.9209L71.3099 61.3411L72.6334 60.1054L83.4331 71.7558L82.1802 72.9209ZM367.437 70.6438L366.167 69.4964L376.755 57.6695L378.114 58.8875L367.437 70.6438ZM85.3919 69.973L74.751 58.1814C75.2098 57.7754 75.6686 57.3517 76.1274 56.9457L86.6448 68.8609C86.2213 69.2316 85.8154 69.6023 85.3919 69.973ZM364.208 67.7488L362.92 66.6367L373.279 54.5803L374.655 55.7807L364.208 67.7488ZM88.6389 67.1133L78.2627 55.0922L79.6391 53.9096L89.9447 66.0013L88.6565 67.1133H88.6389ZM360.908 64.9245C360.485 64.5714 360.044 64.2007 359.62 63.8477L369.696 51.5795C370.173 51.9678 370.649 52.3738 371.126 52.7622L360.908 64.9245ZM91.9388 64.3066L81.792 52.0914L83.2037 50.9263L93.2446 63.2475L91.9388 64.3243V64.3066ZM357.573 62.1884L356.232 61.1293L366.079 48.6669L367.508 49.7966L357.573 62.1884ZM95.2916 61.5706L85.3919 49.1435L86.8213 48.0137L96.6328 60.5114L95.2916 61.5706ZM354.167 59.5053L352.791 58.4638L362.391 45.8072L363.82 46.9017L354.15 59.5053H354.167ZM98.6974 58.9051L89.0624 46.2662L90.5094 45.1718L100.039 57.8813L98.6798 58.9051H98.6974ZM350.673 56.8751C350.232 56.5397 349.773 56.2043 349.314 55.8866L358.632 43.0182C359.126 43.3889 359.638 43.7419 360.132 44.1126L350.673 56.8751ZM102.156 56.3102L92.7858 43.4772L94.2681 42.4004L103.533 55.3041L102.156 56.2926V56.3102ZM347.162 54.3332L345.767 53.3623L354.82 40.3174L356.32 41.3766L347.144 54.3509L347.162 54.3332ZM105.668 53.786L96.5622 40.7764L98.0621 39.7349L107.08 52.8151L105.685 53.786H105.668ZM343.597 51.8619L342.185 50.9263L350.956 37.6873L352.491 38.7111L343.597 51.8619ZM109.232 51.35L100.392 38.1462L101.909 37.14L110.644 50.4144L109.232 51.35ZM339.979 49.4789L338.55 48.561L347.056 35.1454L348.591 36.1339L339.979 49.4789ZM112.85 48.9846L104.291 35.6043L105.827 34.6334L114.297 48.0667L112.85 48.9846ZM336.309 47.1665L334.844 46.2662L343.103 32.6917L344.656 33.6449L336.327 47.1665H336.309ZM116.52 46.6898L108.227 33.133L109.779 32.1798L117.968 45.7896L116.52 46.6722V46.6898ZM332.603 44.9246L331.121 44.0597L339.079 30.3087L340.65 31.2266L332.603 44.9246ZM120.226 44.4833L112.215 30.7676L113.785 29.8674L121.691 43.636L120.209 44.4833H120.226ZM328.844 42.7534L327.362 41.9238L335.021 27.9963L336.627 28.8965L328.844 42.7534ZM123.985 42.3298L116.256 28.4552L117.862 27.5726L125.467 41.5178L123.985 42.3298ZM325.033 40.6705L323.533 39.8761L330.909 25.8074L332.533 26.6723L325.05 40.6881L325.033 40.6705ZM127.779 40.2821L120.35 26.2487L121.956 25.4014L129.279 39.5054L127.779 40.2998V40.2821ZM321.186 38.6581L319.668 37.8814L326.744 23.6715L328.386 24.5011L321.186 38.6581ZM131.608 38.2874L124.461 24.0951L126.085 23.2831L133.108 37.5284L131.591 38.2874H131.608ZM317.303 36.7164L315.751 35.975L322.562 21.6238L324.203 22.4182L317.303 36.7341V36.7164ZM135.491 36.381L128.644 22.0475L130.285 21.2708L137.026 35.6573L135.491 36.381ZM313.368 34.8629L311.815 34.1568L318.292 19.6468L319.968 20.4058L313.351 34.8453L313.368 34.8629ZM139.408 34.5452L132.861 20.0705L134.52 19.3291L140.961 33.8568L139.408 34.5452ZM309.398 33.0977L307.827 32.4269L314.021 17.7933L315.698 18.5171L309.38 33.0977H309.398ZM143.361 32.8153L137.096 18.217L138.773 17.5109L144.914 32.1622L143.361 32.8153ZM305.41 31.4208L303.822 30.7853L309.715 16.0281L311.41 16.7166L305.41 31.4208ZM147.349 31.156L141.385 16.4341L143.096 15.7457L148.92 30.5205L147.349 31.156ZM301.369 29.8144L299.763 29.2142L305.339 14.3335L307.051 14.9866L301.351 29.8144H301.369ZM151.373 29.5673L145.726 14.7219L147.455 14.0687L152.961 28.9671L151.373 29.5673ZM297.292 28.2963L295.686 27.7315L300.945 12.7448L302.674 13.3627L297.292 28.314V28.2963ZM155.431 28.0669L150.102 13.0979L151.831 12.48L157.037 27.4843L155.431 28.0492V28.0669ZM293.181 26.8665L291.557 26.3193L296.516 11.2267L298.263 11.8093L293.198 26.8665H293.181ZM159.525 26.6547L154.496 11.5798L156.225 11.0149L161.131 26.1251L159.508 26.6547H159.525ZM289.051 25.5073L287.428 24.9954L292.051 9.79692L293.816 10.3441L289.051 25.5073ZM163.655 25.3308L158.961 10.15L160.708 9.6204L165.296 24.8365L163.672 25.3308H163.655ZM284.904 24.254L283.281 23.7774L287.604 8.49067L289.369 9.00258L284.922 24.254H284.904ZM167.819 24.0775L163.425 8.80841L165.19 8.31415L169.443 23.6185L167.819 24.0775ZM280.74 23.0713L279.116 22.6477L283.104 7.27267C283.704 7.43154 284.287 7.59041 284.887 7.74928L280.74 23.089V23.0713ZM171.984 22.9124L167.907 7.55511L169.69 7.09615L173.625 22.4888L171.984 22.9124ZM276.557 21.9945L274.899 21.5885L278.569 6.12529L280.352 6.54894L276.557 21.9769V21.9945ZM176.184 21.8533L172.425 6.40772L174.207 5.98407L177.825 21.4473L176.166 21.8357L176.184 21.8533ZM272.34 21.006L270.681 20.6353L274.034 5.10146L275.834 5.48981L272.34 20.9884V21.006ZM180.419 20.8648L176.978 5.34859L178.76 4.96025L182.078 20.4941L180.419 20.8471V20.8648ZM268.122 20.0881L266.464 19.7527L269.481 4.1659L271.281 4.51894L268.122 20.0881ZM184.672 19.9645L181.548 4.39538L183.348 4.04234L186.33 19.6468L184.672 19.9645ZM263.87 19.2761L262.193 18.976L264.911 3.3186L266.711 3.63634L263.87 19.2761ZM188.924 19.1702L186.136 3.53042L187.936 3.21269L190.619 18.8701L188.942 19.1702H188.924ZM259.617 18.5524L257.94 18.2876L260.34 2.57721L262.14 2.85964L259.634 18.5524H259.617ZM193.195 18.4465L190.724 2.75373L192.524 2.4713L194.871 18.1817L193.195 18.4465ZM255.329 17.8992L253.635 17.6698L255.699 1.92408L257.517 2.17121L255.329 17.8992ZM197.483 17.811L195.348 2.0653L197.165 1.81817L199.177 17.5815L197.483 17.811ZM251.041 17.3344L249.346 17.1402L251.093 1.34156L252.911 1.55339L251.058 17.3344H251.041ZM201.789 17.2638L199.971 1.48278L201.789 1.28861L203.483 17.0872L201.789 17.2814V17.2638ZM246.735 16.8754L245.041 16.7166L246.452 0.900258L248.27 1.07678L246.735 16.8931V16.8754ZM206.095 16.8225L204.612 1.00617L206.43 0.847304L207.806 16.6812L206.112 16.8401L206.095 16.8225ZM242.411 16.5047L240.717 16.3812L241.811 0.529565L243.629 0.65313L242.411 16.4871V16.5047ZM210.4 16.4518L209.236 0.600172L211.036 0.476608L212.112 16.3282L210.4 16.4518ZM238.088 16.2046L236.376 16.1164L237.153 0.247132L238.97 0.335391L238.088 16.2046ZM214.724 16.1693L213.894 0.300086L215.712 0.211827L216.436 16.0811L214.724 16.1693ZM233.747 16.0105L232.035 15.9575L232.476 0.0706101L234.294 0.123568L233.729 15.9928L233.747 16.0105ZM219.047 15.9928L218.535 0.105915L220.353 0.0529576L220.741 15.9399L219.047 15.9928ZM229.423 15.9046H227.712L227.835 0H229.653L229.423 15.9046ZM223.388 15.9046L223.177 0.0176525H225.012L225.082 15.8869H223.388V15.9046Z" fill="white"/>
</svg>
