<svg width="537" height="538" viewBox="0 0 537 538" fill="none" xmlns="http://www.w3.org/2000/svg">
<circle cx="267.588" cy="268.214" r="252" stroke="#C2D6E5" stroke-width="4"/>
<path d="M341.745 506.032L342.799 509.252C312.28 518.775 280.219 522.419 248.321 519.977C215.258 517.447 183.018 508.43 153.441 493.44C123.864 478.45 97.5293 457.781 75.9401 432.613C55.1107 408.331 39.0924 380.321 28.7272 350.077L31.9477 349.023C42.1742 378.844 57.9721 406.463 78.5117 430.407C99.8113 455.237 125.793 475.629 154.973 490.417C184.153 505.206 215.961 514.103 248.579 516.599C280.034 519.006 311.649 515.416 341.745 506.032Z" stroke="#C2D6E5" stroke-width="7"/>
<path d="M515.813 249.413L519.181 249.105C523.416 303.922 509.631 358.626 479.923 404.889L477.103 403.022C506.386 357.401 519.979 303.463 515.813 249.413Z" stroke="#C2D6E5" stroke-width="7"/>
<path d="M340.249 30.421L341.191 27.1725C393.78 43.2084 439.696 75.9848 471.949 120.511L469.183 122.457C437.373 78.5594 392.1 46.2424 340.249 30.421Z" stroke="#C2D6E5" stroke-width="7"/>
<mask id="path-5-inside-1_750_2795" fill="white">
<path d="M30.0098 173.61C50.6586 121.934 87.5932 78.3997 135.214 49.6069L138.101 54.3823C91.5192 82.547 55.3902 125.132 35.1918 175.681L30.0098 173.61Z"/>
</mask>
<path d="M30.0098 173.61L23.5095 171.013L20.9121 177.513L27.4124 180.11L30.0098 173.61ZM135.214 49.6069L141.204 45.9851L137.582 39.9949L131.592 43.6167L135.214 49.6069ZM138.101 54.3823L141.723 60.3725L147.713 56.7507L144.092 50.7605L138.101 54.3823ZM35.1918 175.681L32.5944 182.181L39.0946 184.778L41.692 178.278L35.1918 175.681ZM36.51 176.207C56.5939 125.945 92.5179 83.6021 138.836 55.5971L131.592 43.6167C82.6684 73.1973 44.7233 117.923 23.5095 171.013L36.51 176.207ZM129.224 53.2288L132.111 58.0041L144.092 50.7605L141.204 45.9851L129.224 53.2288ZM134.48 48.3921C86.5944 77.3446 49.4549 121.121 28.6915 173.083L41.692 178.278C61.3255 129.143 96.4439 87.7494 141.723 60.3725L134.48 48.3921ZM37.7892 169.18L32.6072 167.11L27.4124 180.11L32.5944 182.181L37.7892 169.18Z" fill="#00B2A9" mask="url(#path-5-inside-1_750_2795)"/>
<circle cx="81.5879" cy="95.2136" r="7.5" fill="white" stroke="#00B2A9" stroke-width="5"/>
</svg>
