<svg width="154" height="98" viewBox="0 0 154 98" fill="none" xmlns="http://www.w3.org/2000/svg">
<path d="M80.7059 14.7849C81.5468 14.7849 82.2285 14.1006 82.2285 13.2565C82.2285 12.4124 81.5468 11.7281 80.7059 11.7281C79.865 11.7281 79.1833 12.4124 79.1833 13.2565C79.1833 14.1006 79.865 14.7849 80.7059 14.7849Z" fill="#FF6A13"/>
<path d="M29.015 57.541H18.7296L17.2381 62.0716H11.1554L20.4076 35.7848H27.671L36.8844 62.0716H30.4987L29.0072 57.541H29.015ZM23.8568 41.9997L20.4542 52.2852H27.2593L23.8568 41.9997Z" fill="white"/>
<path d="M53.9981 35.7848H60.9198L50.5179 48.9087L61.2228 62.0716H53.5398L44.6683 50.866V62.0716H38.741V35.7848H44.6683V48.0275L53.9981 35.7848Z" fill="white"/>
<path d="M70.9799 62.0638V52.2384L61.4636 35.777H67.9968L74.0406 46.8266L80.1233 35.777H86.47L76.9537 52.2774V62.0638H70.9799Z" fill="white"/>
<path d="M48.7389 97.8486C68.3774 97.8486 86.3302 85.676 93.7956 67.4288H92.0244C84.5901 84.9118 67.655 96.172 48.7312 96.172C22.7847 96.172 1.67021 74.9772 1.67021 48.9243C1.67021 22.8714 22.7847 1.67656 48.7389 1.67656C58.496 1.67656 67.8725 4.68656 75.8584 10.3713L76.4022 10.7612L76.1536 11.3772C75.3923 13.2253 75.8118 15.3385 77.2256 16.7578C78.7638 18.3018 81.0943 18.6371 83.0286 17.5922L83.6113 17.2724L84.0463 17.7715C88.1558 22.4737 91.2554 27.7997 93.2441 33.6091H95.023C92.9489 27.324 89.6395 21.5691 85.1572 16.5004L84.7765 16.0638L85.0484 15.5491C86.0661 13.6152 85.732 11.2758 84.2017 9.74743C82.5392 8.07867 79.9213 7.82913 77.9714 9.14698L77.4898 9.4745L77.0159 9.13919C68.6882 3.15817 58.9155 0 48.7389 0C21.8603 0 0 21.9434 0 48.9243C0 75.9052 21.8603 97.8486 48.7389 97.8486ZM78.4764 11.0185C79.7038 9.78642 81.708 9.78642 82.9354 11.0185C83.5336 11.6189 83.8599 12.4143 83.8599 13.2565C83.8599 14.0987 83.5336 14.8941 82.9354 15.4945C82.3372 16.095 81.5138 16.4225 80.7059 16.4225C79.898 16.4225 79.0901 16.1183 78.4764 15.4945C77.2489 14.2624 77.2489 12.2506 78.4764 11.0185Z" fill="white"/>
<path d="M109.651 42.491C106.831 42.491 105.324 43.9804 104.578 45.1267C103.638 43.4423 101.921 42.491 99.7851 42.491C97.5322 42.491 96.2116 43.4579 95.5047 44.2689V42.7249H93.516V57.8919H95.5047V48.9321C95.5047 46.1092 97.0506 44.4249 99.6452 44.4249C102.015 44.4249 103.374 45.9299 103.374 48.55V57.8841H105.363V48.7215C105.363 46.0312 106.909 44.4249 109.503 44.4249C111.873 44.4249 113.232 45.9299 113.232 48.55V57.8841H115.221V48.433C115.221 44.8148 113.03 42.4832 109.643 42.4832L109.651 42.491Z" fill="white"/>
<path d="M126.438 42.491C122.104 42.491 118.709 45.9143 118.709 50.2811C118.709 54.648 122.08 58.1025 126.555 58.1025C129.67 58.1025 131.946 56.8626 133.515 54.3205L133.655 54.0865L132.078 53.0026L131.923 53.2599C130.719 55.2484 129.064 56.1296 126.555 56.1296C123.417 56.1296 121.148 54.1177 120.814 51.0921H134.02V50.8036C134.02 50.749 134.02 50.6476 134.036 50.6086L134.051 50.5151C134.051 50.4215 134.051 50.3201 134.067 50.2187C134.067 50.094 134.083 49.9692 134.083 49.8444C134.083 45.7193 130.727 42.491 126.438 42.491ZM131.993 49.205H120.822C121.288 46.0702 123.96 44.4327 126.438 44.4327C129.336 44.4327 131.581 46.3822 131.993 49.205Z" fill="white"/>
<path d="M151.049 37.3209V45.0097C149.681 43.3799 147.654 42.491 145.253 42.491C140.934 42.491 137.555 45.9221 137.555 50.3123C137.555 54.7025 140.934 58.1025 145.253 58.1025C148.198 58.1025 149.992 56.8548 151.049 55.5837V57.8685H153.045V37.3287H151.049V37.3209ZM151.134 50.2811C151.134 53.6342 148.641 56.1608 145.339 56.1608C142.037 56.1608 139.544 53.6342 139.544 50.2811C139.544 46.928 142.037 44.4327 145.339 44.4327C148.641 44.4327 151.134 46.9436 151.134 50.2811Z" fill="white"/>
</svg>
