<svg width="54" height="69" viewBox="0 0 54 69" fill="none" xmlns="http://www.w3.org/2000/svg">
<path d="M26.9125 0C19.7773 0.00809433 12.9367 2.84611 7.89142 7.89142C2.84611 12.9367 0.00809433 19.7773 0 26.9125C0 49.941 24.4659 67.3423 25.5057 68.0763C25.9224 68.3537 26.4118 68.5018 26.9125 68.5018C27.4131 68.5018 27.9025 68.3537 28.3192 68.0763C29.359 67.3423 53.8249 49.941 53.8249 26.9125C53.8168 19.7773 50.9788 12.9367 45.9335 7.89142C40.8882 2.84611 34.0476 0.00809433 26.9125 0V0ZM26.9125 17.1261C28.848 17.1261 30.7401 17.7001 32.3495 18.7754C33.9588 19.8507 35.2132 21.3792 35.9539 23.1674C36.6946 24.9556 36.8884 26.9233 36.5108 28.8217C36.1331 30.72 35.2011 32.4638 33.8324 33.8324C32.4638 35.2011 30.72 36.1332 28.8217 36.5108C26.9233 36.8884 24.9556 36.6946 23.1674 35.9539C21.3792 35.2132 19.8507 33.9588 18.7754 32.3495C17.7001 30.7401 17.1261 28.848 17.1261 26.9125C17.1261 24.317 18.1572 21.8278 19.9925 19.9925C21.8278 18.1572 24.317 17.1261 26.9125 17.1261V17.1261Z" fill="#FF6A13"/>
<circle cx="26.8821" cy="28.2298" r="12.0447" fill="white"/>
<circle cx="26.8822" cy="28.2304" r="6.02237" fill="#00B2A9"/>
</svg>
